<?xml version="1.0" encoding="UTF-8"?>
<svg id="Layer_2" data-name="Layer 2" xmlns="http://www.w3.org/2000/svg" viewBox="0 0 301.55 200">
  <g id="Layer_1-2" data-name="Layer 1">
    <g>
      <path d="m205.86,0c1.41,2.24,1.55,4.75,1.55,7.3,0,1.26.57,1.78,1.94,1.75,2.32-.05,4.65.06,6.96.29.83.08,1.62.69,2.42,1.05-.77.28-1.53.73-2.33.81-2.4.25-4.8.39-7.21.5-1.01.04-1.36.44-1.37,1.44-.06,6.13,2.59,10.93,6.99,15.01,8.8,8.15,19.47,12.57,30.76,15.82,1.48.42,2.96.84,4.42,1.31.3.1.53.42.8.64-.33.13-.67.41-.97.37-2.76-.32-5.52-.65-8.27-1.05-6.42-.94-12.76-2.3-18.88-4.51-3.55-1.28-7.05-2.74-10.5-4.29-3.77-1.7-7.4-1.68-11.18-.01-7.65,3.38-15.45,6.42-23.71,7.92-4.12.75-8.31,1.12-12.47,1.65-.4.05-.81,0-1.21,0-.05-.12-.09-.23-.14-.35.47-.23.92-.53,1.41-.69,4.66-1.5,9.4-2.8,13.99-4.49,6.43-2.37,12.3-5.88,17.87-9.85,5.39-3.84,8.03-9.16,8.14-15.79.05-2.94.11-2.9-2.83-3.16-2.23-.19-4.45-.46-6.66-.77-.42-.06-.79-.5-1.18-.77.4-.21.78-.57,1.19-.61,2.35-.22,4.71-.41,7.07-.51,1.81-.08,1.84-.08,1.94-1.92.13-2.37.32-4.73.48-7.1.33,0,.67,0,1,0Z"/>
      <path d="m11.73,200c2.03-.17,4.06-.47,6.09-.47,1.88,0,3.76.3,5.64.47-3.91,0-7.82,0-11.73,0Z"/>
      <path d="m48.54,111.69c-.3,8.57-.49,17.16-.94,25.72-.54,10.23-1.29,20.44-1.97,30.66-.19,2.78-.45,5.56-.71,8.34-.09,1,.19,1.29,1.25,1.13,8.75-1.34,17.5-2.62,26.25-3.92,1.93-.29,3.86-.59,5.8-.83,1.16-.15,1.74-.72,1.92-1.9,1.04-7,2.14-13.99,3.2-20.98,1.37-9.09,2.74-18.19,4.09-27.29.66-4.44,1.22-8.9,1.91-13.34.13-.8.68-1.54,1.04-2.3.61.51,1.34.93,1.79,1.55.65.9,1.21,1.9,1.6,2.94,2.65,7.13,4.31,14.49,5.32,22.03,1.37,10.23,2.93,20.43,4.35,30.66.24,1.73.34,3.49.33,5.23,0,1.03.27,1.24,1.26,1.2,9.18-.43,18.35-1.09,27.53-1.11,9.93-.02,19.86.51,29.78.93,4.35.19,8.7.7,13.04,1.08,2.21.19,2.12.2,2.32-1.97.84-8.83,1.53-17.67,2.68-26.46.97-7.42,2.42-14.77,3.81-22.13.51-2.69,1.33-5.34,2.31-7.9.54-1.42,1.62-2.65,2.59-3.86.56-.69,1.17-.55,1.35.44.63,3.44,1.3,6.87,1.9,10.31,2.38,13.69,4.75,27.39,7.12,41.09.66,3.81,1.28,7.63,1.93,11.45.37,2.14.67,2.45,2.82,2.83,11.01,1.92,22.02,3.82,33.02,5.72,1.59.28,1.67.19,1.52-1.37-.83-8.87-1.67-17.74-2.49-26.61-.65-7.05-1.41-14.09-1.88-21.15-.81-12.05-1.22-24.12-1.13-36.21.08-9.96.49-19.9,1.57-29.81.32-2.94.66-5.88,1.19-8.78.32-1.74.98-3.43,1.6-5.1.15-.4.74-.9,1.09-.88.38.03.94.55,1.06.97.89,3.03,1.85,6.05,2.48,9.13,2.44,11.99,4.76,24,7.14,36,3,15.1,5.99,30.21,9.05,45.3,2.89,14.27,5.9,28.53,8.79,42.8.46,2.27,1.53,3.55,3.84,4.11,8.92,2.15,17.82,4.42,26.72,6.66,1,.25,2,.58,2.96.96.33.13.55.52.82.79-.35.06-.71.19-1.05.15-2.97-.33-5.93-.73-8.9-1.04-5.66-.58-11.33-1.1-16.99-1.69-5.66-.59-11.31-1.27-16.97-1.85-7.36-.75-14.72-1.46-22.08-2.14-9.14-.84-18.28-1.67-27.43-2.41-3.56-.29-7.14-.36-10.71-.49-9.72-.36-19.44-.92-29.16-.97-8.39-.04-16.78.54-25.17.83-8.31.28-16.63.45-24.93.83-5.06.23-10.11.71-15.16,1.19-5.5.52-10.99,1.12-16.48,1.79-8.29,1.01-16.56,2.15-24.85,3.15-6.97.84-13.95,1.57-20.93,2.33-4.3.47-8.58,1.06-12.89,1.31-5.22.31-10.47.55-15.69.39-3.81-.12-7.62-.87-10.5-3.87-1.96-2.05-2.21-4.46-.53-6.77,2.29-3.15,5.5-4.87,9.2-5.79,1.25-.31,2.5-.6,3.75-.91,1.33-.34,2.14-1.16,2.41-2.55.76-3.92,1.58-7.83,2.33-11.75,1.03-5.35,2.03-10.71,3.02-16.07,1.89-10.23,3.81-20.45,5.63-30.69,2.29-12.9,4.47-25.83,6.75-38.73,1.6-9.06,3.23-18.11,4.98-27.13.34-1.76,1.28-3.41,1.94-5.11.28-.71.79-.69,1.08-.15.63,1.19,1.43,2.42,1.62,3.71,1.2,8.15,2.39,16.31,3.33,24.49,1.29,11.23,1.43,22.52,1.39,33.82Z"/>
      <path d="m209.75,108.9c-4.59-.72-9.2-1.36-13.78-2.17-14.16-2.51-27.94-6.36-41.16-12.07-3.66-1.58-7.24-3.38-10.72-5.31-2.88-1.6-5.54-1.72-8.49-.19-10.28,5.32-20.86,9.9-32.07,12.93-9.31,2.52-18.72,4.59-28.28,5.9-2.21.3-4.46.36-6.7.47-.35.02-.71-.3-1.06-.46.26-.29.47-.72.8-.84,2.06-.76,4.14-1.5,6.24-2.15,4.68-1.46,9.5-2.54,14.03-4.37,6.58-2.66,13.11-5.52,19.36-8.87,9.04-4.85,17.85-10.14,26.67-15.38,3.69-2.19,7.07-2.35,10.68.14,12.92,8.92,26.96,15.82,41.24,22.17,6.24,2.78,12.92,4.56,19.4,6.77,1.69.58,3.42,1.03,5.1,1.62.48.17.86.64,1.29.97-.5.22-1,.49-1.52.65-.3.09-.66.02-.99.02,0,.06-.02.12-.03.18Z"/>
      <path d="m123.29,158.31c.62-12.97,4.21-24.98,11.59-35.75,3.01-4.39,5.71-4.38,8.74.08,4.54,6.68,8.1,13.87,10.52,21.58,1.29,4.12,2.38,8.32,3.34,12.53.95,4.17-.1,5.24-4.33,4.95-3.65-.25-7.3-.73-10.94-.65-4.6.1-9.19.66-13.79,1.02-.87.07-1.74.17-2.61.18-1.78.03-2.38-.53-2.53-2.33-.05-.54,0-1.08,0-1.62Z"/>
      <path d="m112.83,46.43c-11.04-1.59-21.73-3.68-31.85-8.07-2.21-.96-4.46-1.87-6.53-3.07-2.01-1.17-3.81-1.15-5.9-.27-4.86,2.04-9.77,3.96-14.71,5.81-7.84,2.94-16.03,4.29-24.31,5.14-.69.07-1.4-.14-2.1-.22.62-.34,1.21-.85,1.88-1.01,6.36-1.53,12.61-3.44,18.47-6.33,4.76-2.35,9.4-4.99,13.87-7.85,5.19-3.32,8.04-8.29,8.73-14.46.07-.62.19-1.23.26-1.85.2-1.72.2-1.75-1.57-1.98-2.31-.29-4.63-.47-6.93-.8-.64-.09-1.23-.54-1.85-.83.62-.26,1.22-.69,1.85-.75,2.15-.2,4.31-.29,6.47-.37,1.97-.07,2.15-.28,2.28-2.25.12-1.73.35-3.46.64-5.17.07-.39.59-.71.91-1.06.32.39.85.75.91,1.18.24,1.68.37,3.38.46,5.08.11,2,.17,2.12,2.13,2.22,2.16.11,4.32.14,6.47.34.76.07,1.48.56,2.22.86-.71.28-1.4.72-2.14.81-2.43.3-4.87.49-7.31.68-.9.07-1.25.42-1.38,1.37-.81,5.85.98,10.72,5.24,14.77,5.28,5.02,11.56,8.41,18.21,11.09,4.69,1.89,9.54,3.37,14.32,5.03.39.14.84.16,1.19.37.61.36,1.17.82,1.75,1.24-.61.13-1.23.25-1.68.34Z"/>
      <path d="m173.52,82.83c.58-7.34,1.17-14.68,1.74-22.03.23-2.95.37-5.9.65-8.84.11-1.19.45-2.37.77-3.53.32-1.16.93-1.33,1.57-.32,1.09,1.7,2.19,3.47,2.85,5.37,2.41,7.02,3.92,14.27,4.77,21.65.64,5.62,1.31,11.24,1.91,16.87.3,2.8.25,2.81-2.33,1.97-2.53-.82-5.05-1.67-7.59-2.44-2.6-.79-4.17-2.32-4.1-5.2.03-1.16,0-2.33,0-3.5-.08,0-.16,0-.24-.01Z"/>
      <path d="m105.88,84.08c0,.44,0,.65,0,.86,0,4.54-.78,5.53-5.1,6.83-2.38.72-4.72,1.6-7.09,2.36-1.61.52-2.04.25-1.89-1.43.53-5.88.97-11.77,1.8-17.61.94-6.58,2.09-13.14,3.52-19.64.57-2.62,2.04-5.06,3.24-7.51.51-1.05,1.26-.96,1.57.21.57,2.16,1.1,4.36,1.33,6.58.9,8.86,1.67,17.72,2.48,26.59.09.99.11,1.99.15,2.76Z"/>
      <path d="m70.87,73.82c-2.78,0-5.57-.01-8.35,0-1.9,0-2.22-.23-2.12-2.12.45-8.69,3.53-16.37,8.98-23.11,1.49-1.85,2.65-1.77,4.13.12,4.75,6.09,7.31,13.11,8.57,20.65.64,3.81.5,3.97-3.34,4.07-2.62.07-5.24.01-7.86.01,0,.12,0,.25,0,.37Z"/>
      <path d="m199.39,71.35c.14-7.59,2.2-14.59,6.43-20.92,2.1-3.14,3.46-3.25,5.48-.04,4.23,6.72,8.39,13.49,10.07,21.43.43,2.04-.02,2.72-2.14,2.63-2.98-.13-5.96-.45-8.94-.45-2.4,0-4.79.38-7.19.6-.37.03-.74.09-1.12.1-2.14.07-2.57-.35-2.59-2.48,0-.29,0-.58,0-.88Z"/>
    </g>
  </g>
</svg>